<svg width="526" height="488" viewBox="0 0 526 488" fill="none" xmlns="http://www.w3.org/2000/svg">
<path d="M76.948 451.321C179.553 500.219 345.9 500.234 448.505 451.321C551.11 402.409 551.095 323.136 448.505 274.238C345.915 225.34 179.553 225.34 76.948 274.238C-25.6568 323.136 -25.6419 402.423 76.948 451.321Z" fill="#AB8AF1"/>
<path d="M448.148 415.184C467.045 415.184 482.364 407.884 482.364 398.88C482.364 389.875 467.045 382.575 448.148 382.575C429.251 382.575 413.931 389.875 413.931 398.88C413.931 407.884 429.251 415.184 448.148 415.184Z" fill="#EBEBEB"/>
<path d="M69.1608 401.217L81.2661 394.234C88.0248 388.719 93.169 381.481 96.1558 373.284C99.8931 362.981 99.3719 355.149 96.6918 351.218C93.4012 346.379 84.8694 347.227 84.5269 357.412C83.8122 377.483 77.9606 391.405 69.1608 401.217Z" fill="#AB8AF1"/>
<path opacity="0.2" d="M69.1608 401.217L81.2661 394.234C88.0248 388.719 93.169 381.481 96.1558 373.284C99.8931 362.981 99.3719 355.149 96.6918 351.218C93.4012 346.379 84.8694 347.227 84.5269 357.412C83.8122 377.483 77.9606 391.405 69.1608 401.217Z" fill="black"/>
<path d="M69.1608 401.962C69.0031 401.96 68.8502 401.908 68.7239 401.814C68.5977 401.719 68.5047 401.587 68.4583 401.436C68.412 401.286 68.4146 401.124 68.466 400.975C68.5173 400.826 68.6146 400.697 68.7439 400.607C96.7365 381.25 91.3166 354.255 91.2571 353.987C91.2365 353.889 91.2355 353.789 91.2539 353.69C91.2723 353.592 91.31 353.499 91.3646 353.415C91.4192 353.331 91.4897 353.259 91.5722 353.203C91.6547 353.147 91.7474 353.107 91.8452 353.086C91.943 353.066 92.0438 353.065 92.142 353.083C92.2402 353.102 92.3338 353.139 92.4174 353.194C92.5011 353.249 92.5732 353.319 92.6295 353.402C92.6859 353.484 92.7255 353.577 92.746 353.675C92.746 353.957 98.4637 381.876 69.6372 401.828C69.4974 401.923 69.33 401.97 69.1608 401.962Z" fill="white"/>
<path d="M44.9055 415.229C44.9055 415.229 40.6917 411.804 41.7042 407.158C42.7167 402.513 45.4415 399.177 40.7811 393.192C36.1206 387.206 34.8252 379.225 40.3939 374.907C44.6375 371.557 51.2634 376.292 53.6457 367.462C55.4027 361 54.8071 346.691 63.0411 341.927C71.2751 337.162 76.4418 344.339 75.1464 354.047C74.0148 362.728 72.4067 371.081 73.6575 373.403C76.0696 377.87 80.194 377.26 80.0005 385.419C79.8367 393.013 72.645 399.297 72.645 399.297L44.9055 415.229Z" fill="#AB8AF1"/>
<path d="M58.738 407.947C58.5559 407.946 58.3807 407.878 58.244 407.758C58.1074 407.638 58.0184 407.473 57.9935 407.292C55.8642 389.648 60.9714 359.184 65.1405 350.131C65.1756 350.03 65.2318 349.939 65.3054 349.862C65.3789 349.785 65.468 349.725 65.5668 349.685C65.6656 349.646 65.7717 349.628 65.8779 349.633C65.9842 349.638 66.0881 349.665 66.1828 349.714C66.2717 349.754 66.3516 349.811 66.4179 349.883C66.4843 349.954 66.5356 350.038 66.5689 350.13C66.6022 350.221 66.6168 350.319 66.6119 350.416C66.607 350.514 66.5826 350.609 66.5401 350.697C62.4157 359.63 57.4872 390.184 59.5271 407.054C59.548 407.249 59.4909 407.445 59.3682 407.598C59.2455 407.752 59.0671 407.851 58.872 407.873L58.738 407.947Z" fill="white"/>
<path d="M58.3359 394.204C58.2219 394.21 58.1087 394.184 58.0083 394.13C52.8416 391.613 49.5658 382.635 49.4318 382.218C49.3953 382.125 49.3778 382.027 49.3802 381.927C49.3827 381.828 49.405 381.73 49.446 381.639C49.487 381.548 49.5457 381.466 49.6188 381.399C49.6918 381.331 49.7777 381.279 49.8713 381.245C49.9649 381.211 50.0643 381.197 50.1637 381.202C50.2631 381.207 50.3605 381.232 50.45 381.276C50.5395 381.319 50.6194 381.38 50.6849 381.455C50.7504 381.53 50.8003 381.617 50.8315 381.712C50.8315 381.801 54.0327 390.497 58.6634 392.745C58.8153 392.819 58.9377 392.942 59.0106 393.094C59.0834 393.246 59.1023 393.419 59.0642 393.583C59.0261 393.748 58.9333 393.894 58.801 393.999C58.6687 394.104 58.5046 394.16 58.3359 394.16V394.204Z" fill="white"/>
<path d="M58.2467 400.16C58.0975 400.16 57.9519 400.115 57.8294 400.03C57.707 399.944 57.6136 399.824 57.5618 399.684C57.4877 399.502 57.4884 399.298 57.5637 399.117C57.639 398.936 57.7828 398.792 57.9638 398.716C66.6594 395.232 72.0792 384.883 72.1388 384.764C72.2296 384.589 72.3865 384.456 72.575 384.396C72.7635 384.336 72.9681 384.353 73.1439 384.444C73.3196 384.535 73.452 384.692 73.5121 384.88C73.5721 385.069 73.5548 385.273 73.464 385.449C73.2257 385.896 67.7315 396.408 58.5743 400.101C58.4723 400.149 58.3593 400.17 58.2467 400.16Z" fill="white"/>
<path d="M362.19 320.054C362.19 320.054 355.683 309.512 355.043 298.062C354.402 286.611 356.919 281.847 360.373 280.477C363.827 279.107 364.096 283.321 365.867 285.807C367.639 288.294 371.257 286.88 372.598 279.122C373.938 271.364 378.821 258.276 388.976 255.73C400.143 252.961 394.158 266.064 391.344 271.171C388.529 276.278 386.356 283.246 388.202 285.137C390.048 287.028 392.922 283.529 395.647 286.775C398.967 290.691 388.649 304.792 382.723 308.202L362.19 320.054Z" fill="#AB8AF1"/>
<path d="M371.109 315.631C371.011 315.628 370.915 315.605 370.826 315.564C370.737 315.523 370.657 315.464 370.591 315.393C370.524 315.321 370.473 315.236 370.439 315.144C370.405 315.053 370.39 314.955 370.394 314.857C371.402 296.438 377.146 278.591 387.07 263.041C387.127 262.96 387.199 262.891 387.282 262.839C387.366 262.787 387.459 262.752 387.557 262.736C387.654 262.721 387.753 262.726 387.849 262.75C387.945 262.774 388.034 262.817 388.113 262.877C388.269 262.993 388.373 263.166 388.404 263.358C388.434 263.55 388.389 263.746 388.276 263.905C378.53 279.227 372.889 296.799 371.898 314.932C371.892 315.029 371.867 315.125 371.824 315.213C371.782 315.302 371.722 315.38 371.649 315.445C371.575 315.51 371.49 315.56 371.397 315.592C371.305 315.624 371.206 315.637 371.109 315.631Z" fill="white"/>
<path d="M371.957 306.832C371.833 306.83 371.71 306.8 371.6 306.742C367.431 304.434 365.123 297.585 365.034 297.302C365.001 297.209 364.987 297.111 364.992 297.013C364.998 296.914 365.023 296.818 365.065 296.729C365.108 296.641 365.168 296.562 365.242 296.496C365.316 296.431 365.402 296.381 365.495 296.349C365.683 296.288 365.887 296.304 366.063 296.393C366.239 296.483 366.372 296.638 366.433 296.826C366.433 296.826 368.667 303.422 372.389 305.432C372.558 305.532 372.681 305.693 372.734 305.881C372.787 306.07 372.765 306.272 372.672 306.445C372.605 306.573 372.501 306.678 372.374 306.747C372.246 306.816 372.101 306.845 371.957 306.832Z" fill="white"/>
<path d="M372.687 302.32C372.522 302.318 372.362 302.262 372.233 302.159C372.103 302.057 372.012 301.914 371.972 301.754C371.948 301.66 371.942 301.563 371.956 301.467C371.97 301.371 372.003 301.278 372.053 301.195C372.103 301.112 372.169 301.039 372.247 300.982C372.325 300.925 372.414 300.884 372.508 300.861C383.259 298.136 386.981 292.508 387.011 292.448C387.064 292.365 387.132 292.293 387.213 292.237C387.293 292.18 387.384 292.14 387.48 292.119C387.576 292.097 387.676 292.095 387.773 292.112C387.87 292.129 387.962 292.165 388.046 292.217C388.129 292.27 388.201 292.339 388.257 292.419C388.314 292.5 388.354 292.591 388.375 292.687C388.397 292.783 388.399 292.883 388.382 292.98C388.365 293.077 388.329 293.169 388.276 293.252C388.113 293.505 384.241 299.417 372.88 302.305L372.687 302.32Z" fill="white"/>
<path d="M200.19 296.915C200.19 296.915 185.911 293.431 185.166 266.689C184.377 237.833 188.665 204.152 171.765 201.428C154.866 198.703 145.485 219.295 145.694 243.342C145.887 264.396 154.374 310.107 200.13 319.071L200.19 296.915Z" fill="#AB8AF1"/>
<path opacity="0.2" d="M200.19 296.915C200.19 296.915 185.911 293.431 185.166 266.689C184.377 237.833 188.665 204.152 171.765 201.428C154.866 198.703 145.485 219.295 145.694 243.342C145.887 264.396 154.374 310.107 200.13 319.071L200.19 296.915Z" fill="black"/>
<path d="M200.19 316.331H200.056C189.767 314.455 181.384 308.782 175.145 299.491C156.652 271.9 162.474 220.382 164.395 211.389C164.438 211.197 164.554 211.03 164.717 210.921C164.881 210.813 165.081 210.773 165.274 210.808C165.466 210.854 165.634 210.973 165.742 211.139C165.85 211.305 165.89 211.507 165.854 211.701C163.963 220.635 158.171 271.498 176.381 298.657C179.032 302.869 182.529 306.484 186.651 309.273C190.772 312.061 195.428 313.963 200.324 314.857C200.421 314.875 200.514 314.912 200.596 314.966C200.679 315.02 200.75 315.09 200.806 315.172C200.861 315.253 200.9 315.345 200.919 315.442C200.939 315.539 200.939 315.639 200.92 315.736C200.888 315.905 200.797 316.058 200.664 316.167C200.53 316.276 200.362 316.334 200.19 316.331Z" fill="white"/>
<path d="M200.19 384.958C185.434 386.953 161.477 386.923 147.644 376.024C133.812 365.125 136.7 355.744 142.016 351.828C147.332 347.912 151.947 343.445 142.805 334.75C133.663 326.054 118.982 312.088 114.217 291.138C109.452 270.188 111.805 257.085 121.155 252.723C130.223 248.494 132.621 255.224 138.174 269.101C143.728 282.978 156.221 271.082 166.911 275.414C177.602 279.747 177.17 288.324 177.84 295.694C178.511 303.065 182.039 305.104 188.099 305.104C194.16 305.104 200.19 308.589 200.19 315.527V384.958Z" fill="#AB8AF1"/>
<path d="M200.19 360.628C200.126 360.642 200.06 360.642 199.996 360.628C199.356 360.449 184.094 356.012 161.864 335.599C138.189 313.86 127.022 281.251 126.903 280.924C126.846 280.736 126.864 280.534 126.952 280.359C127.041 280.184 127.194 280.05 127.379 279.986C127.565 279.924 127.767 279.938 127.943 280.024C128.119 280.11 128.253 280.262 128.317 280.447C128.422 280.775 139.485 313.026 162.876 334.497C184.794 354.642 200.235 359.154 200.398 359.199C200.492 359.226 200.58 359.272 200.656 359.333C200.732 359.394 200.796 359.47 200.843 359.555C200.89 359.641 200.919 359.735 200.93 359.832C200.941 359.93 200.932 360.028 200.905 360.122C200.856 360.272 200.761 360.403 200.632 360.494C200.503 360.585 200.348 360.632 200.19 360.628Z" fill="white"/>
<path d="M168.073 340.78C167.923 340.782 167.777 340.738 167.654 340.652C167.531 340.567 167.438 340.445 167.388 340.304C162.608 328.035 161.522 301.784 161.432 300.667C161.428 300.471 161.5 300.28 161.633 300.136C161.767 299.992 161.951 299.905 162.147 299.893C162.341 299.896 162.528 299.97 162.671 300.102C162.814 300.234 162.903 300.414 162.921 300.608C162.921 300.876 164.038 327.722 168.728 339.768C168.764 339.859 168.781 339.958 168.779 340.056C168.777 340.155 168.755 340.252 168.715 340.342C168.674 340.432 168.617 340.513 168.545 340.581C168.473 340.648 168.389 340.701 168.296 340.735C168.224 340.761 168.149 340.776 168.073 340.78Z" fill="white"/>
<path d="M167.954 358.424C166.581 358.435 165.209 358.366 163.844 358.216C163.746 358.204 163.652 358.173 163.566 358.125C163.48 358.077 163.405 358.012 163.344 357.935C163.283 357.857 163.238 357.769 163.211 357.674C163.185 357.579 163.177 357.48 163.189 357.382C163.201 357.284 163.232 357.19 163.28 357.104C163.328 357.018 163.393 356.943 163.47 356.882C163.548 356.821 163.636 356.776 163.731 356.749C163.826 356.723 163.925 356.715 164.023 356.727C164.157 356.727 178.019 358.305 184.377 351.828C184.443 351.75 184.525 351.686 184.617 351.641C184.709 351.595 184.809 351.57 184.912 351.565C185.014 351.56 185.117 351.577 185.212 351.614C185.308 351.65 185.395 351.707 185.468 351.779C185.541 351.851 185.599 351.937 185.637 352.032C185.675 352.127 185.693 352.23 185.69 352.332C185.687 352.435 185.662 352.535 185.618 352.628C185.574 352.721 185.512 352.803 185.434 352.871C180.833 357.62 172.808 358.424 167.954 358.424Z" fill="white"/>
<path d="M157.233 76.4734L155.625 67.1971L147.346 72.6468C146.59 71.1579 145.518 69.852 144.205 68.8201L148.165 58.0995L140.721 56.4468L135.271 66.8696C133.299 67.2022 131.388 67.8243 129.598 68.7159L127.231 60.8541L118.386 67.8076L118.967 77.0392C117.166 79.0567 115.532 81.218 114.083 83.5014L106.787 83.1291L101.665 94.609L107.934 97.2892C107.279 99.6637 106.865 102.098 106.698 104.555L98.7317 111.881L100.325 121.172L108.618 115.723C109.371 117.21 110.444 118.512 111.76 119.534L107.874 130.27L115.319 131.908L123.121 124.314C124.923 124.031 124.476 120.636 126.441 119.668L128.809 127.5L137.638 120.562L137.415 116.929C139.202 114.933 145.962 110.541 147.421 108.248L149.252 105.27L154.374 93.7901L151.992 89.4721L149.342 83.8438L157.233 76.4734ZM130.208 107.012C123.419 112.343 121.275 113.519 120.128 106.387C118.982 99.2546 122.868 88.4149 129.658 83.0695C136.447 77.7241 139.038 77.3519 140.259 84.4692C141.48 91.5864 137.013 101.741 130.208 107.012Z" fill="#E0E0E0"/>
<path d="M140.78 56.4468L150.443 62.0155L144.994 72.4085L135.33 66.8398L140.78 56.4468Z" fill="#F5F5F5"/>
<path d="M165.289 72.7659L157.01 78.2155L147.346 72.6468L155.625 67.1971L165.289 72.7659Z" fill="#F5F5F5"/>
<path d="M163.963 99.3142L157.695 96.6489L148.031 91.0802L154.3 93.7454L163.963 99.3142Z" fill="#E0E0E0"/>
<path d="M107.859 130.27L117.522 135.824L121.483 125.103L111.82 119.534L107.859 130.27Z" fill="#E0E0E0"/>
<path d="M138.383 133.069L128.734 127.5L126.367 119.668L136.03 125.237L138.383 133.069Z" fill="#E0E0E0"/>
<path d="M166.882 82.0422L165.289 72.7659L157.01 78.2155C156.248 76.726 155.171 75.4201 153.853 74.3889L157.814 63.6683L150.443 62.0155L144.979 72.4383C143.007 72.7709 141.096 73.3931 139.306 74.2846L136.953 66.4527L128.109 73.4061L128.69 82.6378C126.887 84.6695 125.253 86.8457 123.806 89.1445L116.495 88.7723L111.373 100.252L117.642 102.932C116.993 105.313 116.579 107.752 116.406 110.213L108.455 117.435L110.048 126.726L118.326 121.276C119.089 122.762 120.166 124.063 121.483 125.088L117.522 135.809L124.967 137.462L130.417 127.039C132.396 126.71 134.314 126.082 136.105 125.178L138.457 133.01L147.302 126.071L146.721 116.839C148.522 114.822 150.156 112.661 151.605 110.377L158.916 110.735L164.038 99.2546L157.68 96.5894C158.339 94.2102 158.758 91.771 158.931 89.3083L166.882 82.0422ZM139.887 112.64C133.112 117.971 126.62 116.527 125.384 109.409C124.148 102.292 128.66 92.182 135.45 86.8515C142.239 81.521 148.716 82.9802 149.952 90.0975C151.188 97.2147 146.676 107.31 139.887 112.64Z" fill="#EBEBEB"/>
<path d="M136.953 66.4229L127.29 60.8541L118.446 67.8076L128.109 73.3764L136.953 66.4229Z" fill="#F5F5F5"/>
<path d="M118.446 67.8076L119.026 77.0392L128.69 82.608L128.109 73.3764L118.446 67.8076Z" fill="#E0E0E0"/>
<path d="M123.806 89.0701L114.143 83.5013L106.847 83.144L116.495 88.7127L123.806 89.0701Z" fill="#F5F5F5"/>
<path d="M106.846 83.144L101.724 94.609L111.373 100.178L116.495 88.7127L106.846 83.144Z" fill="#E0E0E0"/>
<path d="M116.406 110.124L106.757 104.555L98.7911 111.881L108.44 117.45L116.406 110.124Z" fill="#F5F5F5"/>
<path d="M110.048 126.741L100.384 121.172L98.7911 111.881L108.44 117.45L110.048 126.741Z" fill="#E0E0E0"/>
<path d="M150.443 62.0155L140.78 56.4468L148.165 58.0995L157.814 63.6683L150.443 62.0155Z" fill="#F5F5F5"/>
<path d="M113.964 34.3654V20.5031L102.931 25.4762C102.346 23.1243 101.337 20.899 99.9527 18.9099L106.906 4.89871L98.419 0L89.7532 13.0285C87.3383 12.8175 84.9051 13.0548 82.5764 13.7283L81.3555 1.68254L69.3544 8.62113L68.1483 22.0218C65.5365 24.3362 63.1348 26.8773 60.9715 29.6156L52.3057 26.6376L43.8186 41.3487L50.7572 47.3045C49.4751 50.5467 48.4786 53.8948 47.7792 57.3104L36.746 65.0679V78.9451L47.7792 73.9719C48.3636 76.3238 49.3728 78.5492 50.7572 80.5383L43.8483 94.5644L52.3355 99.4631L61.0013 86.4346C63.4162 86.6449 65.8492 86.4077 68.1781 85.7348L69.3842 97.7806L81.3852 90.842L82.6062 77.4412C86.3519 76.0746 89.6701 73.7426 92.2249 70.6813L98.4488 72.8701L106.936 58.174L101.725 53.7071C102.856 49.9822 103.275 46.0775 102.96 42.1974L113.964 34.3654ZM75.3549 68.9988C66.1531 74.3144 60.4652 70.4878 60.4652 59.9012C60.4652 49.3146 68.0739 36.2266 77.2906 30.911C86.5073 25.5954 92.076 29.422 92.076 40.0979C92.076 50.7738 84.5716 63.6683 75.3549 68.9988Z" fill="#E0E0E0"/>
<path d="M108.067 5.55386L98.419 0L89.7532 13.0285L99.4017 18.5972L108.067 5.55386Z" fill="#F5F5F5"/>
<path d="M123.627 26.0719L113.964 20.5031L102.93 25.4763L112.594 31.045L123.627 26.0719Z" fill="#F5F5F5"/>
<path d="M79.0029 103.349L69.3544 97.7805L68.1483 85.7348L77.7968 91.3035L79.0029 103.349Z" fill="#E0E0E0"/>
<path d="M43.8037 94.5644L53.4671 100.133L60.4206 86.1219L50.7572 80.5532L43.8037 94.5644Z" fill="#E0E0E0"/>
<path d="M123.627 40.0086V26.1463L112.594 31.0748C112.016 28.7207 111.006 26.4943 109.616 24.5084L116.569 10.4972L108.082 5.58363L99.4166 18.627C97.0016 18.4087 94.5671 18.6461 92.2397 19.3268L91.0188 7.25128L79.0177 14.1899L77.7968 27.5906C75.1887 29.9088 72.7873 32.4496 70.6199 35.1843L61.9541 32.2064L53.467 46.9174L60.4205 52.8733C59.1316 56.1131 58.135 59.4618 57.4425 62.8791L46.4093 70.6367V84.5138L57.4425 79.5407C58.0205 81.8948 59.0302 84.1213 60.4205 86.107L53.467 100.118L61.9541 105.017L70.6199 91.9885C73.0349 92.1994 75.468 91.9622 77.7968 91.2887L79.0177 103.334L91.0188 96.3958L92.2249 82.9951C94.8367 80.6808 97.2384 78.1396 99.4017 75.4014L108.067 78.3793L116.555 63.6832L109.601 57.7273C110.89 54.4873 111.886 51.1387 112.579 47.7214L123.627 40.0086ZM85.0182 74.642C75.8015 79.9576 68.3269 75.6396 68.3269 65.0083C68.3269 54.3771 75.7717 41.438 85.0182 36.1075C94.2647 30.777 101.695 35.1099 101.695 45.7411C101.695 56.3723 94.2201 69.237 85.0182 74.5675V74.642Z" fill="#EBEBEB"/>
<path d="M60.9715 29.6454L70.62 35.2141L61.9542 32.1915L52.3057 26.6079L60.9715 29.6454Z" fill="#F0F0F0"/>
<path d="M52.3046 26.6231L43.8152 41.3391L53.4754 46.9119L61.9648 32.1959L52.3046 26.6231Z" fill="#F5F5F5"/>
<path d="M43.8037 41.3189L53.4671 46.8876L60.4206 52.8733L50.7572 47.3194L43.8037 41.3189Z" fill="#E0E0E0"/>
<path d="M47.7792 57.3253L57.4426 62.894L46.4094 70.6516L36.746 65.0828L47.7792 57.3253Z" fill="#F5F5F5"/>
<path d="M36.746 65.0828L46.4094 70.6515V84.5287L36.746 78.96V65.0828Z" fill="#E0E0E0"/>
<path d="M91.0187 7.25128L81.3553 1.68254L69.3542 8.62113L79.0028 14.1899L91.0187 7.25128Z" fill="#F5F5F5"/>
<path d="M214.901 404.88L354.864 324.059C355.172 323.951 355.439 323.749 355.628 323.482C355.817 323.216 355.919 322.897 355.919 322.57C355.919 322.243 355.817 321.924 355.628 321.658C355.439 321.391 355.172 321.19 354.864 321.081L341.925 313.636C341.123 313.233 340.238 313.023 339.341 313.023C338.444 313.023 337.559 313.233 336.758 313.636L196.75 394.383C196.442 394.491 196.175 394.693 195.986 394.96C195.797 395.226 195.695 395.545 195.695 395.872C195.695 396.199 195.797 396.518 195.986 396.784C196.175 397.051 196.442 397.253 196.75 397.361L209.734 404.806C210.53 405.221 211.411 405.443 212.309 405.456C213.206 405.469 214.094 405.272 214.901 404.88Z" fill="#E0E0E0"/>
<path d="M351.022 12.016L224.817 84.8861C222.941 86.1105 221.38 87.7595 220.26 89.6996C219.14 91.6397 218.492 93.8164 218.37 96.0534V395.44C218.37 399.55 221.259 401.217 224.817 399.163L351.022 326.292C352.901 325.071 354.464 323.422 355.585 321.482C356.705 319.541 357.351 317.363 357.47 315.125V15.7384C357.47 11.6289 354.596 9.96121 351.022 12.016Z" fill="#455A64"/>
<path d="M224.817 84.8861L351.022 12.016C354.209 10.1697 356.844 11.3162 357.38 14.5175C357.083 12.5048 356.362 10.5779 355.266 8.86357C354.17 7.14926 352.724 5.68638 351.022 4.57116L345.781 1.59323C343.783 0.57954 341.574 0.0512543 339.334 0.0512543C337.094 0.0512543 334.885 0.57954 332.887 1.59323L206.667 74.4038C204.766 75.5958 203.198 77.2505 202.111 79.2132L220.261 89.6359C221.348 87.6888 222.917 86.0533 224.817 84.8861Z" fill="#37474F"/>
<path d="M200.19 384.958C200.312 387.195 200.96 389.371 202.08 391.312C203.2 393.252 204.761 394.901 206.637 396.125L211.893 399.103C213.712 400.013 215.703 400.529 217.735 400.616C219.768 400.703 221.795 400.36 223.686 399.609C220.708 400.771 218.34 399.058 218.34 395.381V96.0534C218.415 93.8069 219.066 91.6175 220.231 89.6955L202.081 79.2727C200.932 81.1802 200.282 83.3462 200.19 85.571V384.958Z" fill="#263238"/>
<path d="M228.287 124.776L347.598 55.9108C349.742 54.6898 351.469 55.6874 351.469 58.1442V279.732C351.398 281.075 351.009 282.382 350.337 283.547C349.664 284.711 348.725 285.7 347.598 286.433L228.331 355.298C226.187 356.533 224.46 355.536 224.46 353.064V131.476C224.528 130.137 224.909 128.833 225.574 127.669C226.239 126.505 227.168 125.514 228.287 124.776Z" fill="white"/>
<path d="M287.92 59.797C287.261 60.2294 286.713 60.8103 286.32 61.493C285.927 62.1758 285.7 62.9412 285.657 63.7279C285.657 65.2168 286.669 65.7678 287.92 65.0382C288.581 64.6085 289.131 64.0282 289.524 63.3449C289.918 62.6616 290.143 61.8948 290.183 61.1073C290.183 59.663 289.171 59.0823 287.92 59.797Z" fill="#37474F"/>
<path d="M287.92 331.459C285.317 333.162 283.152 335.454 281.6 338.15C280.047 340.845 279.152 343.868 278.986 346.974C278.986 352.677 282.991 355 287.92 352.141C290.522 350.437 292.687 348.145 294.239 345.45C295.791 342.754 296.686 339.732 296.854 336.626C296.883 330.923 292.863 328.6 287.92 331.459Z" fill="#37474F"/>
<path d="M266.494 82.8462C265.185 83.7149 264.099 84.879 263.323 86.2446C262.547 87.6102 262.103 89.1391 262.027 90.708C262.027 93.5966 264.052 94.7728 266.494 93.3285C267.816 92.4681 268.917 91.3076 269.706 89.9415C270.495 88.5753 270.95 87.0422 271.035 85.4668C271.035 82.5782 269.01 81.4019 266.494 82.8462Z" fill="#37474F"/>
<path d="M277.616 81.8635C277.616 83.7992 279.105 84.5288 280.847 83.5014L310.627 66.274C311.549 65.6979 312.323 64.9122 312.884 63.9807C313.446 63.0493 313.779 61.9984 313.858 60.9137C313.858 58.9929 312.369 58.2633 310.627 59.2907L280.847 76.5181C279.927 77.0927 279.155 77.8761 278.593 78.8048C278.032 79.7335 277.697 80.7814 277.616 81.8635Z" fill="#37474F"/>
<path d="M210.255 134.365C211.312 135.053 212.192 135.98 212.823 137.072C213.454 138.164 213.819 139.389 213.888 140.648C213.888 142.971 212.265 143.909 210.255 142.747C209.202 142.057 208.326 141.128 207.698 140.037C207.069 138.945 206.706 137.721 206.637 136.464C206.637 134.156 208.26 133.218 210.255 134.365Z" fill="#37474F"/>
<path d="M210.255 162.327C211.312 163.016 212.192 163.943 212.823 165.035C213.454 166.127 213.819 167.352 213.888 168.611C213.888 170.919 212.265 171.857 210.255 170.71C209.202 170.019 208.326 169.091 207.698 167.999C207.069 166.908 206.706 165.684 206.637 164.427C206.637 162.104 208.26 161.166 210.255 162.327Z" fill="#37474F"/>
<path d="M209.124 134.93C210.18 135.619 211.06 136.546 211.691 137.638C212.322 138.73 212.688 139.955 212.757 141.214C212.757 143.522 211.134 144.46 209.124 143.313C208.067 142.625 207.188 141.697 206.556 140.606C205.925 139.514 205.56 138.289 205.491 137.03C205.506 134.707 207.129 133.814 209.124 134.93Z" fill="#455A64"/>
<path d="M209.124 162.878C210.182 163.568 211.063 164.498 211.695 165.592C212.326 166.687 212.69 167.915 212.757 169.177C212.757 171.485 211.134 172.423 209.124 171.261C208.065 170.576 207.183 169.649 206.552 168.556C205.92 167.464 205.557 166.238 205.491 164.978C205.506 162.67 207.129 161.732 209.124 162.878Z" fill="#455A64"/>
<path d="M375.62 65.1572C375.62 62.6856 373.893 61.688 371.749 62.9238L357.47 71.1578L252.483 131.789C251.355 132.521 250.416 133.51 249.744 134.675C249.071 135.839 248.683 137.146 248.611 138.489V360.018C248.611 362.489 250.338 363.487 252.483 362.251L357.514 301.605L371.749 293.386C372.877 292.654 373.815 291.665 374.488 290.5C375.161 289.336 375.549 288.029 375.62 286.686V65.1572Z" fill="white"/>
<path d="M377.109 65.1573C377.203 64.4106 377.074 63.6528 376.74 62.9788C376.405 62.3048 375.879 61.7444 375.227 61.3678C374.576 60.9912 373.828 60.815 373.076 60.8614C372.325 60.9077 371.605 61.1745 371.004 61.6284L357.38 69.505L251.738 130.553C250.378 131.411 249.247 132.588 248.443 133.981C247.639 135.374 247.185 136.941 247.122 138.548V360.018C247.062 360.761 247.205 361.507 247.536 362.175C247.866 362.844 248.371 363.41 248.998 363.814C249.531 364.124 250.139 364.284 250.755 364.276C251.628 364.249 252.479 363.998 253.227 363.546L358.944 302.499L372.538 294.652C373.89 293.785 375.015 292.607 375.818 291.215C376.621 289.824 377.079 288.261 377.154 286.656L377.109 65.1573ZM357.41 299.953L356.189 300.667L251.798 360.941C251.622 361.076 251.419 361.17 251.202 361.216C250.986 361.262 250.762 361.26 250.547 361.209C250.353 361.09 250.16 360.673 250.16 359.988V138.489C250.237 137.408 250.558 136.358 251.1 135.419C251.641 134.481 252.389 133.677 253.286 133.069L357.574 72.7659L372.464 64.1448C372.639 64.01 372.842 63.916 373.059 63.8696C373.275 63.8232 373.499 63.8257 373.714 63.8767C373.908 63.9959 374.101 64.4128 374.101 65.0977V286.686C374.024 287.767 373.703 288.817 373.161 289.755C372.62 290.694 371.872 291.498 370.975 292.106L357.38 299.953H357.41Z" fill="#AB8AF1"/>
<path d="M312.116 116.631C325.516 108.918 336.311 115.142 336.311 130.612C336.311 146.083 325.472 164.859 312.116 172.512C298.76 180.165 287.92 174.001 287.92 158.545C287.92 143.09 298.76 124.359 312.116 116.631Z" fill="#AB8AF1"/>
<path d="M312.116 128.781C316.448 126.279 319.962 128.304 319.962 133.248C319.815 135.971 319.028 138.621 317.665 140.983C316.301 143.345 314.4 145.352 312.116 146.842C307.783 149.344 304.269 147.319 304.269 142.375C304.416 139.652 305.203 137.002 306.567 134.64C307.93 132.278 309.831 130.27 312.116 128.781Z" fill="#AB8AF1"/>
<path d="M327.407 155.463C327.407 147.244 321.645 143.909 314.513 148.018L310.046 150.594C302.929 154.704 297.151 164.71 297.151 172.929V175.147C301.276 176.502 306.457 175.773 312.041 172.512C318.226 168.697 323.457 163.517 327.333 157.369L327.407 155.463Z" fill="#AB8AF1"/>
<path opacity="0.7" d="M312.116 128.781C316.448 126.279 319.962 128.304 319.962 133.248C319.815 135.971 319.028 138.621 317.665 140.983C316.301 143.345 314.4 145.352 312.116 146.842C307.783 149.344 304.269 147.319 304.269 142.375C304.416 139.652 305.203 137.002 306.567 134.64C307.93 132.278 309.831 130.27 312.116 128.781Z" fill="white"/>
<path opacity="0.7" d="M327.407 155.463C327.407 147.244 321.645 143.909 314.513 148.018L310.046 150.594C302.929 154.704 297.151 164.71 297.151 172.929V175.147C301.276 176.502 306.457 175.773 312.041 172.512C318.226 168.697 323.457 163.517 327.333 157.369L327.407 155.463Z" fill="white"/>
<path d="M265.302 206.535L296.437 188.563C297.926 187.744 299.013 188.399 299.013 190.052V191.079C298.966 191.974 298.708 192.845 298.26 193.621C297.812 194.398 297.188 195.057 296.437 195.546L265.302 213.518C263.888 214.337 262.727 213.667 262.727 212.029V211.002C262.775 210.107 263.033 209.237 263.481 208.46C263.928 207.684 264.552 207.025 265.302 206.535Z" fill="#AB8AF1"/>
<path opacity="0.1" d="M265.302 206.535L296.437 188.563C297.926 187.744 299.013 188.399 299.013 190.052V191.079C298.966 191.974 298.708 192.845 298.26 193.621C297.812 194.398 297.188 195.057 296.437 195.546L265.302 213.518C263.888 214.337 262.727 213.667 262.727 212.029V211.002C262.775 210.107 263.033 209.237 263.481 208.46C263.928 207.684 264.552 207.025 265.302 206.535Z" fill="black"/>
<path d="M264.022 228.229L358.214 173.852C358.914 173.435 359.495 173.763 359.495 174.596V185.585C359.468 186.031 359.339 186.465 359.117 186.852C358.895 187.24 358.586 187.571 358.214 187.818L264.022 242.196C263.307 242.612 262.727 242.27 262.727 241.451V230.463C262.752 230.015 262.883 229.579 263.108 229.191C263.333 228.803 263.646 228.474 264.022 228.229Z" fill="#AB8AF1"/>
<path opacity="0.2" d="M264.022 228.229L358.214 173.852C358.914 173.435 359.495 173.763 359.495 174.596V185.585C359.468 186.031 359.339 186.465 359.117 186.852C358.895 187.24 358.586 187.571 358.214 187.818L264.022 242.196C263.307 242.612 262.727 242.27 262.727 241.451V230.463C262.752 230.015 262.883 229.579 263.108 229.191C263.333 228.803 263.646 228.474 264.022 228.229Z" fill="white"/>
<path d="M265.302 255.418L296.437 237.446C297.926 236.627 299.013 237.297 299.013 238.935V239.962C298.967 240.857 298.709 241.729 298.262 242.505C297.814 243.282 297.189 243.941 296.437 244.429L265.302 262.401C263.888 263.235 262.727 262.565 262.727 260.912V259.885C262.777 258.991 263.037 258.121 263.484 257.345C263.931 256.569 264.554 255.909 265.302 255.418Z" fill="#AB8AF1"/>
<path opacity="0.1" d="M265.302 255.418L296.437 237.446C297.926 236.627 299.013 237.297 299.013 238.935V239.962C298.967 240.857 298.709 241.729 298.262 242.505C297.814 243.282 297.189 243.941 296.437 244.429L265.302 262.401C263.888 263.235 262.727 262.565 262.727 260.912V259.885C262.777 258.991 263.037 258.121 263.484 257.345C263.931 256.569 264.554 255.909 265.302 255.418Z" fill="black"/>
<path d="M264.022 277.112L358.214 222.735C358.914 222.318 359.495 222.66 359.495 223.479V234.468C359.468 234.914 359.339 235.348 359.117 235.735C358.895 236.123 358.586 236.453 358.214 236.701L264.022 291.078C263.307 291.495 262.727 291.168 262.727 290.334V279.345C262.752 278.898 262.883 278.462 263.108 278.074C263.333 277.686 263.646 277.356 264.022 277.112Z" fill="#AB8AF1"/>
<path opacity="0.2" d="M264.022 277.112L358.214 222.735C358.914 222.318 359.495 222.66 359.495 223.479V234.468C359.468 234.914 359.339 235.348 359.117 235.735C358.895 236.123 358.586 236.453 358.214 236.701L264.022 291.078C263.307 291.495 262.727 291.168 262.727 290.334V279.345C262.752 278.898 262.883 278.462 263.108 278.074C263.333 277.686 263.646 277.356 264.022 277.112Z" fill="white"/>
<path d="M301.589 283.351L338.813 261.895C340.302 261.061 341.403 261.731 341.403 263.384V274.878C341.355 275.775 341.095 276.646 340.644 277.423C340.194 278.199 339.566 278.858 338.813 279.345L301.589 300.816C300.1 301.635 299.013 300.965 299.013 299.327V287.818C299.064 286.924 299.324 286.055 299.771 285.279C300.219 284.503 300.841 283.843 301.589 283.351Z" fill="#AB8AF1"/>
<path opacity="0.1" d="M301.589 283.351L338.813 261.895C340.302 261.061 341.403 261.731 341.403 263.384V274.878C341.355 275.775 341.095 276.646 340.644 277.423C340.194 278.199 339.566 278.858 338.813 279.345L301.589 300.816C300.1 301.635 299.013 300.965 299.013 299.327V287.818C299.064 286.924 299.324 286.055 299.771 285.279C300.219 284.503 300.841 283.843 301.589 283.351Z" fill="black"/>
<path d="M389.736 234.84C389.736 234.84 371.451 209.617 370.379 206.55C369.53 204.286 370.379 200.921 370.647 199.358C370.915 197.795 371.153 194.31 371.421 193.402C371.868 191.705 369.679 192.047 368.443 193.596C367.207 195.144 366.791 198.241 366.15 198.747C365.51 199.254 360.641 192.151 358.095 188.876C355.549 185.6 353.956 183.605 352.392 184.826C351.275 185.704 352.109 187.61 353.956 190.409C355.034 191.917 356.028 193.482 356.934 195.1C357.216 195.71 355.698 195.755 354.879 197.02C354.239 198.003 354.879 199.596 353.985 200.356C353.436 200.774 353.059 201.38 352.927 202.058C352.795 202.736 352.918 203.439 353.271 204.033C354.928 206.636 357.066 208.9 359.569 210.704C362.309 212.595 363.411 213.265 365.034 215.841C366.657 218.417 381.219 244.727 382.201 246.305C383.184 247.883 385.075 251.1 387.949 251.189C390.823 251.278 414.348 231.028 415.554 230.016C419.426 226.785 420.661 226.323 421.317 229.227C421.543 230.259 421.712 231.303 421.823 232.353C422.284 236.046 424.801 249.238 424.801 249.238C424.801 249.238 436.713 255.001 446.495 252.216C456.278 249.432 459.583 245.278 459.583 245.278L454.684 237.297C456.01 234.006 462.129 220.665 464.11 211.329L433.437 206.371C432.811 206.237 431.799 205.984 430.459 205.641C428.776 205.195 424.503 203.721 421.272 206.55C410.73 215.737 389.765 234.84 389.765 234.84" fill="#FFA8A7"/>
<path d="M450.545 389.603L445.051 397.242C447.548 398.408 450.276 398.993 453.032 398.954C457.96 399.133 459.315 397.465 459.494 397.138C460.328 395.351 459.032 392.135 458.675 389.365L450.545 389.603Z" fill="#37474F"/>
<path d="M445.364 393.579C445.364 393.579 438.693 393.147 434.092 392.581C429.491 392.016 425.843 394.249 426.915 396.14C427.987 398.031 430.533 399.609 434.494 400.934C437.874 402.081 441.939 402.9 445.453 403.912C448.967 404.925 451.409 406.25 453.449 405.535C455.727 404.746 456.709 403.838 456.516 402.17C456.019 399.798 455.403 397.453 454.67 395.142L445.364 393.579Z" fill="#37474F"/>
<path d="M459.494 381.935C459.494 381.935 458.66 388.874 458.6 390.363C458.541 391.852 451.826 392.328 450.545 389.603L450.337 381.116L459.494 381.935Z" fill="#F28F8F"/>
<path d="M452.734 386.194L455.131 396.736C455.131 396.736 455.354 398.016 449.875 398.835C444.396 399.654 435.789 395.961 434.315 395.217C432.841 394.472 432.677 392.968 438.068 393.266C443.458 393.564 445.363 393.579 445.363 393.579L443.607 388.918L452.734 386.194Z" fill="#FFA8A7"/>
<path d="M464.02 211.24L467.817 210.183C467.817 210.183 475.753 235.302 476.632 237.729C477.51 240.156 478.508 242.717 476.796 245.71C474.756 249.268 464.02 263.577 464.02 263.577L457.201 256.907L464.943 242.732L458.094 228.884L464.02 211.24Z" fill="#F28F8F"/>
<path d="M425.024 178.617C424.134 176.946 423.682 175.076 423.711 173.183C423.739 171.29 424.248 169.435 425.188 167.792C428.97 160.779 437.397 157.369 447.433 158.664C452.079 159.275 457.558 163.131 460.551 168.894C463.856 175.281 464.169 188.146 465.018 193.015L425.024 178.617Z" fill="#37474F"/>
<path d="M424.756 181.371C424.756 181.371 422.374 185.913 422.791 186.329C423.408 186.69 424.083 186.942 424.786 187.074L424.756 181.371Z" fill="#FFA8A7"/>
<path d="M431.992 167.018C429.402 168.7 424.935 171.797 424.741 181.997C424.533 192.419 426.022 195.859 427.57 197.065C428.612 197.884 434.732 197.467 437.353 196.856C439.973 196.246 447.522 192.509 450.247 186.836C453.448 180.165 452.793 170.457 448.043 167.479C445.626 166.05 442.885 165.257 440.078 165.177C437.27 165.096 434.488 165.729 431.992 167.018Z" fill="#FFA8A7"/>
<path d="M459.494 245.218C464.08 252.365 468.428 258.619 469.38 266.689C471.346 283.648 464.914 303.035 463.529 315.587C466.133 319.157 467.634 323.412 467.847 327.826C467.847 333.023 459.494 381.935 459.494 381.935C459.494 381.935 453.419 383.782 450.337 381.116L444.604 291.138L447.582 280.179L459.494 245.218Z" fill="#AB8AF1"/>
<path opacity="0.2" d="M459.494 245.218C464.08 252.365 468.428 258.619 469.38 266.689C471.346 283.648 464.914 303.035 463.529 315.587C466.133 319.157 467.634 323.412 467.847 327.826C467.847 333.023 459.494 381.935 459.494 381.935C459.494 381.935 453.419 383.782 450.337 381.116L444.604 291.138L447.582 280.179L459.494 245.218Z" fill="black"/>
<path d="M444.604 291.138L447.582 280.179C453.284 278.678 458.783 276.493 463.961 273.672C463.961 273.672 460.864 279.316 451.96 282.413L447.359 296.483L446.971 328.719L444.604 291.138Z" fill="#AB8AF1"/>
<path opacity="0.3" d="M444.604 291.138L447.582 280.179C453.284 278.678 458.783 276.493 463.961 273.672C463.961 273.672 460.864 279.316 451.96 282.413L447.359 296.483L446.971 328.719L444.604 291.138Z" fill="black"/>
<path d="M459.494 245.218C461.951 249.238 467.817 256.088 466.566 262.684C465.077 270.665 460.759 276.278 447.627 280.179L435.298 324.848C435.298 324.848 441.715 330.804 443.681 336.566C445.646 342.329 452.734 386.223 452.734 386.223C452.734 386.223 450.53 389.812 443.606 388.948C443.606 388.948 419.47 333.856 417.773 330.268C415.713 326.634 414.991 322.393 415.733 318.282C416.492 312.505 424.667 249.268 424.667 249.268L459.494 245.218Z" fill="#AB8AF1"/>
<path opacity="0.2" d="M459.494 245.218C461.951 249.238 467.817 256.088 466.566 262.684C465.077 270.665 460.759 276.278 447.627 280.179L435.298 324.848C435.298 324.848 441.715 330.804 443.681 336.566C445.646 342.329 452.734 386.223 452.734 386.223C452.734 386.223 450.53 389.812 443.606 388.948C443.606 388.948 419.47 333.856 417.773 330.268C415.713 326.634 414.991 322.393 415.733 318.282C416.492 312.505 424.667 249.268 424.667 249.268L459.494 245.218Z" fill="black"/>
<path d="M464.02 211.24L433.347 206.282C432.722 206.148 431.71 205.895 430.37 205.552C430.37 205.552 429.059 224.79 421.183 229.197C421.376 230.12 421.54 231.147 421.689 232.324C422.15 236.016 424.667 249.209 424.667 249.209C424.667 249.209 436.579 254.971 446.361 252.187C456.144 249.402 459.449 245.248 459.449 245.248L454.55 237.267C455.92 233.947 462.085 220.606 464.02 211.24Z" fill="#AB8AF1"/>
<path opacity="0.7" d="M464.02 211.24L433.347 206.282C432.722 206.148 431.71 205.895 430.37 205.552C430.37 205.552 429.059 224.79 421.183 229.197C421.376 230.12 421.54 231.147 421.689 232.324C422.15 236.016 424.667 249.209 424.667 249.209C424.667 249.209 436.579 254.971 446.361 252.187C456.144 249.402 459.449 245.248 459.449 245.248L454.55 237.267C455.92 233.947 462.085 220.606 464.02 211.24Z" fill="white"/>
<path d="M455.935 234.096C451.862 236.542 447.594 238.648 443.175 240.394C447.186 240.314 451.112 239.229 454.595 237.237L455.935 234.096Z" fill="#AB8AF1"/>
<path d="M431.233 167.524C431.233 167.524 429.744 177.202 433.258 182.89C433.258 182.89 434.568 179.034 437.829 179.763C441.09 180.493 441.269 184.796 438.976 187.208C438.393 187.885 437.631 188.383 436.778 188.647C435.925 188.91 435.014 188.927 434.151 188.697C434.151 188.697 433.63 195.695 433.347 201.562C433.065 207.428 431.516 220.218 438.112 225.385C444.708 230.552 461.266 232.368 469.023 221.529C473.341 215.498 467.609 204.837 464.943 192.881C462.487 181.892 461.102 165.603 449.443 162.982C437.785 160.362 431.233 167.524 431.233 167.524Z" fill="#37474F"/>
<path d="M474.011 35.2886L471.554 36.7775C471.761 35.9034 471.875 35.0102 471.897 34.1123C471.897 29.1242 468.398 27.1141 464.08 29.6454C462.766 30.438 461.593 31.4445 460.61 32.6233C460.61 25.9229 455.905 23.1981 450.098 26.5483C447.038 28.5439 444.492 31.2328 442.665 34.3967C440.839 37.5606 439.784 41.1105 439.586 44.7584C439.586 45.1009 439.586 45.4284 439.586 45.756C438.09 45.5678 436.576 45.916 435.313 46.7387C433.038 48.2213 431.144 50.2196 429.786 52.5713C428.428 54.9229 427.643 57.5617 427.496 60.2734C427.495 60.9038 427.56 61.5326 427.689 62.1496L426.379 62.9089C422.82 64.9637 419.932 68.969 419.932 71.8427C419.932 74.7164 422.82 75.4014 426.379 73.3317L474.026 45.8602C477.585 43.8055 480.473 39.8001 480.473 36.9264C480.473 34.0527 477.57 33.2189 474.011 35.2886Z" fill="#EBEBEB"/>
</svg>
